<svg xmlns="http://www.w3.org/2000/svg" fill="none" width="238" height="126"><defs><mask id="a" style="mask-type:alpha" maskUnits="userSpaceOnUse"><path d="M136.003 11.745a4.504 4.504 0 0 0-4.497-4.238A4.504 4.504 0 0 0 127 12.01a4.504 4.504 0 0 0 4.506 4.502v-1.517l-.223-.009a2.987 2.987 0 0 1-2.766-2.976 2.987 2.987 0 0 1 2.989-2.985 2.986 2.986 0 0 1 2.987 2.985h1.518l-.008-.265zM148 12.01a4.504 4.504 0 0 0-4.506-4.503 4.503 4.503 0 0 0-4.505 4.503h1.518l.008-.223a2.986 2.986 0 0 1 2.979-2.762 2.987 2.987 0 0 1 2.989 2.985 2.987 2.987 0 0 1-2.989 2.985v1.517l.265-.008A4.504 4.504 0 0 0 148 12.01zm-4.885 10.709c.197.187.359.31.583.423a.824.824 0 0 1 .546.772.827.827 0 0 1-.83.823.83.83 0 0 1-.817-.67 3.285 3.285 0 0 0-.514-.597c-.167-.17-.573-.466-1.033-.833-1.207-.963-2.522-1.683-3.512-1.683-.989 0-1.922.598-2.933 1.302-.242.168-.706.517-1.311.97a4.01 4.01 0 0 0-.963 1.073l-.007-.008a.83.83 0 0 1-.738.446.827.827 0 0 1-.83-.823c0-.381.263-.703.62-.795.502-.247.445-.143.893-.632.466-.51 1.023-1.262 1.253-1.585.831-1.163 1.27-2.037 1.27-2.759 0-1.035-.58-1.785-1.174-2.67-.21-.313-.661-.888-1.114-1.451-.45-.561-.896-1.002-1.326-1.218l.003-.002a.821.821 0 0 1 .405-1.542c.408 0 .746.292.817.676.171.46 1.119 1.26 1.119 1.26s1.012.76 1.27.93c1.942 1.276 4.387.988 5.718-.104a79.779 79.779 0 0 1 1.573-1.24c.12-.104.433-.514.502-.746a.827.827 0 0 1 .828-.776.822.822 0 0 1 .35 1.57l.003.001c-.477.211-.722.644-.839.765 0 0-.523.735-1.158 1.546-.867 1.108-1.423 2.117-1.418 3.107.005.988.718 2.018 1.52 2.997.463.565.472.744 1.244 1.473zm-11.609-1.715v-1.517l-.265.007A4.504 4.504 0 0 0 127 23.99a4.504 4.504 0 0 0 4.506 4.503 4.503 4.503 0 0 0 4.505-4.503h-1.518l-.008.223a2.986 2.986 0 0 1-2.979 2.762 2.987 2.987 0 0 1-2.989-2.985 2.987 2.987 0 0 1 2.989-2.985zM148 23.99a4.504 4.504 0 0 0-4.506-4.502v1.517l.223.009a2.987 2.987 0 0 1 2.766 2.976 2.987 2.987 0 0 1-2.989 2.985 2.986 2.986 0 0 1-2.987-2.985h-1.518l.008.265a4.504 4.504 0 0 0 4.497 4.238A4.504 4.504 0 0 0 148 23.989z" fill-rule="evenodd" fill="#FFF"/></mask><mask id="b" style="mask-type:alpha" maskUnits="userSpaceOnUse"><path d="m138 60 4.5 5h-9l4.5-5zm2 5.5V67h-4v-1.5h4zm0 4V68h-4v1.5h4zm-2.584.51L138 70l.584.01C142.73 70.16 146 71.89 146 74c0 2.21-3.582 4-8 4s-8-1.79-8-4c0-2.111 3.27-3.84 7.416-3.99zM148 75c0-2.761-4.477-5-10-5l-.293.003-.328.007C132.146 70.17 128 72.343 128 75c0 2.761 4.477 5 10 5s10-2.239 10-5zm-11.123-3.83-.349 1.498h2.983l-.348-1.497h1.335l1.38 4.659h-1.63l-.458-1.963h-3.54l-.458 1.963h-1.629l1.38-4.66h1.334z" fill-rule="evenodd" fill="#FFF"/></mask></defs><path d="M136.003 11.745a4.504 4.504 0 0 0-4.497-4.238A4.504 4.504 0 0 0 127 12.01a4.504 4.504 0 0 0 4.506 4.502v-1.517l-.223-.009a2.987 2.987 0 0 1-2.766-2.976 2.987 2.987 0 0 1 2.989-2.985 2.986 2.986 0 0 1 2.987 2.985h1.518l-.008-.265zM148 12.01a4.504 4.504 0 0 0-4.506-4.503 4.503 4.503 0 0 0-4.505 4.503h1.518l.008-.223a2.986 2.986 0 0 1 2.979-2.762 2.987 2.987 0 0 1 2.989 2.985 2.987 2.987 0 0 1-2.989 2.985v1.517l.265-.008A4.504 4.504 0 0 0 148 12.01zm-4.885 10.709c.197.187.359.31.583.423a.824.824 0 0 1 .546.772.827.827 0 0 1-.83.823.83.83 0 0 1-.817-.67 3.285 3.285 0 0 0-.514-.597c-.167-.17-.573-.466-1.033-.833-1.207-.963-2.522-1.683-3.512-1.683-.989 0-1.922.598-2.933 1.302-.242.168-.706.517-1.311.97a4.01 4.01 0 0 0-.963 1.073l-.007-.008a.83.83 0 0 1-.738.446.827.827 0 0 1-.83-.823c0-.381.263-.703.62-.795.502-.247.445-.143.893-.632.466-.51 1.023-1.262 1.253-1.585.831-1.163 1.27-2.037 1.27-2.759 0-1.035-.58-1.785-1.174-2.67-.21-.313-.661-.888-1.114-1.451-.45-.561-.896-1.002-1.326-1.218l.003-.002a.821.821 0 0 1 .405-1.542c.408 0 .746.292.817.676.171.46 1.119 1.26 1.119 1.26s1.012.76 1.27.93c1.942 1.276 4.387.988 5.718-.104a79.779 79.779 0 0 1 1.573-1.24c.12-.104.433-.514.502-.746a.827.827 0 0 1 .828-.776.822.822 0 0 1 .35 1.57l.003.001c-.477.211-.722.644-.839.765 0 0-.523.735-1.158 1.546-.867 1.108-1.423 2.117-1.418 3.107.005.988.718 2.018 1.52 2.997.463.565.472.744 1.244 1.473zm-11.609-1.715v-1.517l-.265.007A4.504 4.504 0 0 0 127 23.99a4.504 4.504 0 0 0 4.506 4.503 4.503 4.503 0 0 0 4.505-4.503h-1.518l-.008.223a2.986 2.986 0 0 1-2.979 2.762 2.987 2.987 0 0 1-2.989-2.985 2.987 2.987 0 0 1 2.989-2.985zM148 23.99a4.504 4.504 0 0 0-4.506-4.502v1.517l.223.009a2.987 2.987 0 0 1 2.766 2.976 2.987 2.987 0 0 1-2.989 2.985 2.986 2.986 0 0 1-2.987-2.985h-1.518l.008.265a4.504 4.504 0 0 0 4.497 4.238A4.504 4.504 0 0 0 148 23.989z" fill-rule="evenodd" fill="#FEFEFE"/><path d="m136.762 24.068 1-.017-.008-.5-1 .017.008.5zm.052 3.069h1v-.5h-1v.5zm1.051 3.576v-1h-1v1h1zm.052 3.077v-1h-1v1h1zm.052 3.077v-1h-1v1h1zm.051 3.077v-1h-1v1h1zm.052 3.077v-1h-1v1h1zm.051 3.077v-1h-1v1h1zm.052 3.077v-1h-1v1h1zm.052 3.077v-1h-1v1h1zm.051 3.077v-1h-1v1h1zm.052 3.077v-1h-1v1h1zm.051 3.077v-1h-1v1h1zm-.94 3.077h-.008v-.5h.5l.5-.009.008.5h-.008v.009h-.496l-.496.008v-.008z" fill-rule="evenodd" fill="#FFF"/><path d="m138 60 4.5 5h-9l4.5-5zm2 5.5V67h-4v-1.5h4zm0 4V68h-4v1.5h4zm-2.584.51L138 70l.584.01C142.73 70.16 146 71.89 146 74c0 2.21-3.582 4-8 4s-8-1.79-8-4c0-2.111 3.27-3.84 7.416-3.99zM148 75c0-2.761-4.477-5-10-5l-.293.003-.328.007C132.146 70.17 128 72.343 128 75c0 2.761 4.477 5 10 5s10-2.239 10-5zm-11.123-3.83-.349 1.498h2.983l-.348-1.497h1.335l1.38 4.659h-1.63l-.458-1.963h-3.54l-.458 1.963h-1.629l1.38-4.66h1.334z" fill-rule="evenodd" fill="#FFF"/><path d="m89.306 78.384-1.934.595v-2.333h-.63v2.532l-1.315.404v-2.016h-.63v2.215l-.756.232v.633l.756-.235v3.428c0 .595.296.9.9.9h2.844c.334 0 .577-.089.73-.262.178-.196.295-.746.36-1.655l-.604-.187c-.035.726-.108 1.169-.208 1.312-.07.117-.205.182-.395.182h-2.528c-.317 0-.47-.147-.47-.416V80.22l1.316-.396v3.214h.63v-3.404l1.313-.396c-.01 1.225-.036 1.937-.08 2.124-.055.2-.208.3-.45.3-.11 0-.235-.01-.37-.019l.179.64h.056c.673 0 1.06-.2 1.15-.578.092-.395.136-1.503.136-3.322zm-5.148 3.826c-.343.161-.703.316-1.063.451v-2.988h.937v-.63h-.937V76.72h-.639v2.323h-1.025v.63h1.025v3.202c-.378.108-.756.208-1.134.29l.161.647a15.92 15.92 0 0 0 2.675-.963v-.639zm6.334-5.203v.63h3.747c-.073.398-.19.776-.334 1.154h-2.897v6.138h.62v-.452h5.77v.452h.62V78.79h-3.457c.144-.37.261-.756.334-1.154h3.61v-.63h-8.013zm1.137 6.879v-4.512h1.242v4.512H91.63zm1.843 0V82.73h2.053v1.155h-2.053zm2.657 0v-4.512h1.269v4.512h-1.27zm-2.657-1.72v-1.099h2.053v1.099h-2.053zm0-1.676v-1.116h2.053v1.116h-2.053z" fill="#F7B500"/><path d="M137.5 18h-.5v1h.5v-1zm-4.03 1h1v-1h-1v1zm-3.03 0h1v-1h-1v1zm-3.03 0h1v-1h-1v1zm-3.031 0h1v-1h-1v1zm-3.03 0h1v-1h-1v1zm-3.03 0h1v-1h-1v1zm-3.031 0h1v-1h-1v1zm-3.03 0h1v-1h-1v1zm-3.03 0h1v-1h-1v1zm-3.031 0h1v-1h-1v1zm-3.03 0h1v-1h-1v1zm-3.03 0h1v-1h-1v1zm-3.03 0h1v-1h-1v1zm-3.031 0h1v-1h-1v1zm-3.03 0h1v-1h-1v1zm-3.03 0h1v-1h-1v1zm-3.031 0h1v-1h-1v1zm-3.03 0h1v-1h-1v1zm-3.03 0h1v-1h-1v1zm-3.031 0h1v-1h-1v1zm-3.03 0h1v-1h-1v1zm-3.03 0h1v-1h-1v1zm-3.031 0h1v-1h-1v1zm-3.03 0h1v-1h-1v1zm-3.03 0h1v-1h-1v1zm-3.03 0h1v-1h-1v1zm-3.031 0h1v-1h-1v1zm-3.03 0h1v-1h-1v1zm-3.03 0h1v-1h-1v1zm-3.031 0h1v-1h-1v1zm-3.03 0h1v-1h-1v1zm-3.03 0h1v-1h-1v1zM37 18h-.5v1h.5v-1z" fill-rule="evenodd" fill="#FFF"/><path d="m37.499 18.752 8.798-13.197A1 1 0 0 0 45.465 4H27.869a1 1 0 0 0-.833 1.555l8.799 13.197a1 1 0 0 0 1.664 0zM28.616 5.4l8.05 12.076L44.718 5.4H28.616zM196.85 95.54q1.134 0 2.329 1.195l.707-.707q-1.488-1.488-3.036-1.488-1.365 0-2.683 1.156-1.318-1.156-2.683-1.156-1.364 0-2.682 1.156-1.318-1.156-2.683-1.156-1.365 0-2.682 1.156-1.318-1.156-2.683-1.156-1.365 0-2.682 1.156-1.318-1.156-2.683-1.156-1.365 0-2.683 1.156-1.317-1.156-2.682-1.156-1.549 0-3.036 1.488l.707.707q1.195-1.195 2.329-1.195 1.134 0 2.329 1.195l.353.353.354-.353q1.195-1.195 2.329-1.195 1.134 0 2.329 1.195l.354.353.353-.353q1.195-1.195 2.33-1.195 1.133 0 2.328 1.195l.354.353.353-.353q1.195-1.195 2.33-1.195 1.133 0 2.328 1.195l.354.353.353-.353q1.195-1.195 2.33-1.195 1.134 0 2.328 1.195l.354.353.354-.353q1.194-1.195 2.329-1.195zM18.974 94.763q-1.55 0-3.067 1.155l.606.796q1.248-.95 2.46-.95 1.213 0 2.46.95l.304.23.303-.23q1.247-.95 2.46-.95 1.213 0 2.46.95l.303.23.303-.23q1.247-.95 2.46-.95 1.213 0 2.46.95l.303.23.303-.23q1.248-.95 2.46-.95 1.213 0 2.46.95l.304.23.303-.23q1.247-.95 2.46-.95 1.213 0 2.46.95l.303.23.303-.23q1.247-.95 2.46-.95 1.213 0 2.46.95l.303.23.303-.23q1.248-.95 2.46-.95 1.213 0 2.46.95l.304.23.303-.23q1.247-.95 2.46-.95 1.213 0 2.46.95l.606-.796q-1.516-1.155-3.066-1.155-1.396 0-2.763.936-1.368-.936-2.763-.936-1.396 0-2.764.936-1.367-.936-2.763-.936-1.395 0-2.763.936-1.368-.936-2.763-.936-1.396 0-2.763.936-1.368-.936-2.763-.936-1.396 0-2.764.936-1.367-.936-2.763-.936-1.395 0-2.763.936-1.368-.936-2.763-.936-1.396 0-2.763.936-1.368-.936-2.763-.936z" fill-rule="evenodd" fill="#FFF"/><path d="M143.5 95.54q1.135 0 2.33 1.195l.707-.707q-1.488-1.488-3.036-1.488-1.365 0-2.683 1.156-1.317-1.156-2.682-1.156t-2.683 1.156q-1.318-1.156-2.682-1.156-1.365 0-2.683 1.156-1.318-1.156-2.683-1.156-1.364 0-2.682 1.156-1.318-1.156-2.683-1.156-1.365 0-2.682 1.156-1.318-1.156-2.683-1.156-1.365 0-2.682 1.156-1.318-1.156-2.683-1.156-1.365 0-2.683 1.156-1.317-1.156-2.682-1.156t-2.683 1.156q-1.317-1.156-2.682-1.156t-2.683 1.156q-1.317-1.156-2.682-1.156t-2.683 1.156q-1.318-1.156-2.682-1.156-1.365 0-2.683 1.156-1.318-1.156-2.683-1.156-1.364 0-2.682 1.156-1.318-1.156-2.683-1.156-1.365 0-2.682 1.156-1.318-1.156-2.683-1.156-1.365 0-2.682 1.156-1.318-1.156-2.683-1.156-1.365 0-2.683 1.156-1.317-1.156-2.682-1.156-1.549 0-3.036 1.488l.707.707q1.195-1.195 2.329-1.195 1.134 0 2.329 1.195l.353.353.354-.353q1.195-1.195 2.329-1.195 1.134 0 2.329 1.195l.354.353.353-.353q1.195-1.195 2.33-1.195 1.133 0 2.328 1.195l.354.353.353-.353q1.195-1.195 2.33-1.195 1.133 0 2.328 1.195l.354.353.353-.353q1.195-1.195 2.33-1.195 1.134 0 2.328 1.195l.354.353.354-.353q1.194-1.195 2.329-1.195 1.134 0 2.329 1.195l.353.353.354-.353q1.195-1.195 2.329-1.195 1.134 0 2.329 1.195l.353.353.354-.353q1.195-1.195 2.329-1.195 1.134 0 2.329 1.195l.353.353.354-.353q1.195-1.195 2.329-1.195 1.134 0 2.329 1.195l.353.353.354-.353q1.195-1.195 2.329-1.195 1.134 0 2.329 1.195l.354.353.353-.353q1.195-1.195 2.33-1.195 1.133 0 2.328 1.195l.354.353.353-.353q1.195-1.195 2.33-1.195 1.133 0 2.328 1.195l.354.353.353-.353q1.195-1.195 2.33-1.195 1.134 0 2.328 1.195l.354.353.354-.353q1.194-1.195 2.329-1.195 1.134 0 2.329 1.195l.353.353.354-.353q1.195-1.195 2.329-1.195 1.134 0 2.329 1.195l.353.353.354-.353q1.195-1.195 2.329-1.195z" fill-rule="evenodd" fill="#FFF"/><path d="M169.85 95.54q1.134 0 2.329 1.195l.707-.707q-1.488-1.488-3.036-1.488-1.365 0-2.683 1.156-1.318-1.156-2.683-1.156-1.364 0-2.682 1.156-1.318-1.156-2.683-1.156-1.365 0-2.682 1.156-1.318-1.156-2.683-1.156-1.365 0-2.682 1.156-1.318-1.156-2.683-1.156-1.365 0-2.683 1.156-1.317-1.156-2.682-1.156-1.549 0-3.036 1.488l.707.707q1.195-1.195 2.329-1.195 1.134 0 2.329 1.195l.353.353.354-.353q1.195-1.195 2.329-1.195 1.134 0 2.329 1.195l.354.353.353-.353q1.195-1.195 2.33-1.195 1.133 0 2.328 1.195l.354.353.353-.353q1.195-1.195 2.33-1.195 1.133 0 2.328 1.195l.354.353.353-.353q1.195-1.195 2.33-1.195 1.134 0 2.328 1.195l.354.353.354-.353q1.194-1.195 2.329-1.195z" fill-rule="evenodd" fill="#FFF"/><path d="M153.813 94.376q5.903.8 7.058 1.107l.258-.966q-1.217-.324-7.182-1.132-4.713-.638-5.686-.86-.535-.122-1.145-1.387-.424-.88-1.254-3.347-1.353-4.017-2.352-5.745-1.783-3.084-4.295-3.491-2.487-.403-4.441 2.168-1.08 1.421-2.693 5.1-1.114 2.542-1.679 3.405-.794 1.214-1.474 1.134-1.245-.147-3.054-1.153-1.129-.628-3.567-2.285-3.289-2.235-5.004-3.099-2.95-1.486-5.316-1.431-3.334.077-7.467 2.587-2.248 1.365-5.37 3.964-.88.733-1.078.862-.114.074-.994-1.038-1.134-1.432-1.93-1.98-1.462-1.008-3.124-.536-1.154.328-2.598 1.285-.848.562-2.568 1.911-2.119 1.662-3.203 2.327-1.767 1.085-3.213 1.28-.674.09-3.719-.427-5.973-1.016-10.21-1.129-2.645-.07-3.468-.184-.376-.052-1.116-.04-.704.013-4.577.132l-3.654.111q-7.818.236-24.778 2.987l.16.987q16.896-2.74 24.648-2.974l3.655-.112q5.117-.157 5.526-.1.878.12 3.578.193 4.165.111 10.068 1.115 3.196.543 4.02.432 1.656-.223 3.603-1.418 1.133-.696 3.298-2.393 1.688-1.324 2.503-1.865 1.314-.87 2.318-1.156 1.209-.343 2.284.397.672.464 1.713 1.778.651.823.963 1.08.719.593 1.36.175.248-.161 1.173-.931 3.065-2.552 5.25-3.878 3.903-2.371 6.97-2.443 2.116-.049 4.843 1.325 1.657.835 4.892 3.033 2.475 1.682 3.642 2.332 1.982 1.103 3.424 1.272 1.296.152 2.428-1.58.61-.933 1.758-3.55 1.565-3.57 2.573-4.897 1.591-2.093 3.485-1.786 2.044.331 3.59 3.004.949 1.641 2.269 5.564.85 2.525 1.301 3.462.819 1.7 1.823 1.928 1.017.232 5.775.876z" fill-rule="evenodd" fill="#FFF"/><g><path d="M142.5 19h12.284v-1H142.5v1zM152.167 20l3.666 6H148.5l3.667-6zM152.167 95l3.666-6H148.5l3.667 6z" fill-rule="evenodd" fill="#00F380"/><path d="M151.5 26.202v1.49h1v-1.49h-1zm0 2.947v1.479h1v-1.98h-1v.5zm0 2.936v1.479h1v-1.979h-1v.5zm0 2.936V36.5h1v-1.979h-1v.5zm0 2.936v1.48h1v-1.98h-1v.5zm0 2.937v1.478h1v-1.978h-1v.5zm0 2.936v1.478h1V43.33h-1v.5zm0 2.936v1.479h1v-1.979h-1v.5zm0 2.936v1.479h1v-1.979h-1v.5zm0 2.936v1.479h1v-1.979h-1v.5zm0 2.937v1.478h1v-1.978h-1v.5zm0 2.936v1.478h1v-1.978h-1v.5zm0 2.936v1.478h1v-1.978h-1v.5zm0 2.936v1.479h1v-1.979h-1v.5zm0 2.936v1.479h1v-1.979h-1v.5zm0 2.936v1.479h1v-1.979h-1v.5zm0 2.936v1.48h1v-1.98h-1v.5zm0 2.937v1.478h1v-1.978h-1v.5zm0 2.936v1.479h1v-1.98h-1v.5zm0 2.936v1.479h1V81.5h-1v.5zm0 2.936v1.479h1v-1.979h-1v.5zm0 2.936v1.48h1v-1.98h-1v.5zm0 2.936v.99h1v-1.49h-1v.5zM147.684 96h7.737v-1h-7.737v1z" fill-rule="evenodd" fill="#00F380"/></g><g><path d="M166.188 57.932c-.908.42-1.97.749-3.17 1l.09.69c1.15-.26 2.182-.59 3.08-1v-.69zm-1.63-7.132c-.359 1.182-.779 2.22-1.28 3.141a.627.627 0 0 1-.3.27l.18.661c.5-.081.99-.162 1.47-.25-.49.96-.9 1.64-1.24 2.04-.09.079-.201.15-.328.2l.198.65c.899-.13 1.85-.38 2.83-.742v-.638a12.82 12.82 0 0 1-2.029.6c.54-.72 1.23-1.941 2.06-3.67l-.63-.23c-.19.41-.372.79-.541 1.148-.38.072-.768.13-1.15.183.48-.772.961-1.8 1.44-3.102l-.68-.26zm4.192 3.6v1.752h-1.331V54.4h1.331zm.638 1.752V54.4h1.36v1.752h-1.36zm.42-2.412c.3-.378.612-.85.911-1.4v-.528h-2.34c.13-.26.25-.53.371-.81l-.69-.15c-.52 1.26-1.192 2.27-2.012 3.05l.43.518.26-.257v4.798c0 .56.28.84.86.84h3.102c.53-.02.879-.238 1.048-.658.101-.283.192-.752.26-1.393l-.67-.208c-.059.68-.14 1.1-.218 1.27-.12.201-.332.308-.632.331h-2.63c-.3-.013-.44-.153-.44-.423v-1.917h4.011V53.74h-1.621zm-2.699 0c.33-.388.638-.817.918-1.29h1.882a9.72 9.72 0 0 1-.912 1.29h-1.888zm10.16-.97v.69h2.9v5.322c0 .348-.189.53-.56.53-.459 0-.95-.019-1.471-.052l.15.713h1.572c.68 0 1.029-.341 1.029-1.012V53.46h1.11v-.69h-1.11v-1.96h-.72v1.96h-2.9zm-3.58.65-.48.45c.7.781 1.339 1.553 1.898 2.301-.517.98-1.25 1.83-2.187 2.55l.42.63c.918-.758 1.66-1.62 2.21-2.58.358.51.69 1.012.99 1.51l.517-.518a23.004 23.004 0 0 0-1.159-1.693c.521-1.11.801-2.35.85-3.707v-.531h-3.389v.7h2.741a9.419 9.419 0 0 1-.66 2.94 35 35 0 0 0-1.752-2.051zm4.12 1.221-.55.4c.619.769 1.13 1.501 1.53 2.191l.57-.4c-.362-.641-.88-1.37-1.55-2.19zm9.821-3.87-.79.14c.12.23.24.482.338.762h-4.099v.657h8.832v-.657h-3.962c-.1-.333-.211-.632-.319-.902zm2.68 9.202c.728 0 1.1-.322 1.1-.95V55.52h-7.823v4.483h.69v-3.851h6.442v2.721c0 .32-.211.479-.621.479l-.798-.03.17.651h.84zm-5.603-6.992v1.94h5.593v-1.94h-5.593zm4.893 1.38h-4.19v-.82h4.19v.82zm-4.063 2.432v1.999h3.932v-1.999h-3.932zm3.291 1.458h-2.64v-.92h2.64v.92zm6.28-1.92v.621h.611c.46.629 1.071 1.179 1.81 1.641-.901.378-1.94.648-3.102.817l.313.632c1.318-.222 2.49-.58 3.499-1.062.95.482 2.12.83 3.5 1.062l.312-.619c-1.192-.163-2.233-.433-3.132-.81a7.782 7.782 0 0 0 2.051-1.752v-.53h-5.863zm1.37.621h3.551c-.52.508-1.13.951-1.83 1.319-.69-.358-1.259-.801-1.721-1.319zm-1.95-2.86h1.68v1.558h4.052v-1.559h1.54v-.66h-1.54v-.821h-.7v.82h-2.652v-.81h-.7v.81h-1.68v-1.139h7.292v-.68h-3.431c-.111-.3-.231-.58-.349-.83l-.761.12c.14.221.26.45.38.71h-3.85v3.261c-.02 1.97-.32 3.51-.902 4.62l.54.481c.68-1.282 1.042-2.981 1.081-5.1v-.782zm2.38 0h2.653v.95h-2.653v-.95zm-29.027 10.64a8.415 8.415 0 0 0-1.029 2.06c-.3.86-.44 1.729-.44 2.62 0 .87.14 1.739.44 2.598.25.723.59 1.413 1.029 2.061h.7c-.41-.67-.73-1.36-.948-2.07a7.942 7.942 0 0 1-.442-2.601c0-.86.14-1.719.442-2.598.219-.723.538-1.41.948-2.07h-.7zm4.095 1.13L169.166 73h.88l.758-1.999h3.281l.762 1.999h.889l-2.81-7.139h-.95zm-.912 4.45 1.37-3.572h.04l1.35 3.571h-2.76zm7.888-4.59c-.74 0-1.351.159-1.82.478-.53.342-.79.83-.79 1.452 0 .599.27 1.058.82 1.38.23.12.78.319 1.64.58.8.23 1.309.4 1.51.52.47.25.71.6.71 1.048 0 .381-.179.68-.54.902-.358.218-.84.329-1.42.329-.64 0-1.12-.14-1.451-.4-.358-.29-.58-.75-.648-1.371h-.81c.058.882.367 1.533.93 1.963.479.358 1.14.54 1.98.54.85 0 1.52-.182 2.018-.53.501-.362.752-.863.752-1.481 0-.651-.3-1.15-.892-1.51-.3-.18-.918-.411-1.859-.691-.69-.199-1.13-.348-1.309-.45-.41-.22-.612-.51-.612-.868 0-.41.17-.713.512-.912.299-.179.71-.26 1.24-.26.58 0 1.028.12 1.35.38.31.251.508.629.6 1.15h.81c-.071-.749-.342-1.319-.82-1.7-.462-.37-1.1-.55-1.901-.55zm3.85.14V73h4.939v-.71h-4.128v-6.429h-.81zm5.694-1.13c.4.66.72 1.347.95 2.07.29.879.44 1.738.44 2.598 0 .853-.15 1.722-.44 2.6-.23.71-.55 1.4-.95 2.071h.7a9.6 9.6 0 0 0 1.029-2.06c.29-.86.44-1.73.44-2.598 0-.892-.15-1.761-.44-2.62a9.17 9.17 0 0 0-1.029-2.061h-.7z" fill="#FFF"/></g><g><path d="M19.879 106.961h4.491v-.603h-4.158c.099-.198.198-.414.288-.639l-.648-.135c-.387.954-.882 1.719-1.494 2.304l.414.495c.207-.207.405-.432.594-.675a27.034 27.034 0 0 1-.135 2.097h-.963v.603h.9c-.09.72-.216 1.44-.36 2.16h4.284a1.475 1.475 0 0 1-.054.288.686.686 0 0 1-.432.405 2.937 2.937 0 0 1-.657.072c-.27 0-.567-.018-.891-.036l.189.594c.297 0 .558-.009.783-.009.486 0 .846-.063 1.098-.189.252-.144.423-.36.513-.648.018-.072.045-.225.072-.477h.783v-.558h-.738c.027-.414.054-.945.09-1.602h.792v-.603h-.765c.018-.612.045-1.314.072-2.106h-4.572c.18-.234.342-.477.504-.738zm-.099 3.447h3.456c-.036.666-.063 1.197-.09 1.602h-3.618c.099-.486.18-1.026.252-1.602zm3.483-.603h-3.42c.045-.477.081-.99.108-1.53h3.366c-.018.549-.036 1.062-.054 1.53zm-2.106-1.377-.405.396c.477.315.855.612 1.125.9l.414-.414a7.198 7.198 0 0 0-1.134-.882zm-.081 2.088-.405.396c.468.351.837.684 1.107.99l.423-.414a7.82 7.82 0 0 0-1.125-.972zm-4.032-4.716-.468.441c.594.396 1.053.774 1.386 1.134l.459-.468a9.007 9.007 0 0 0-1.377-1.107zm-.144 2.187-.468.45c.594.414 1.053.792 1.386 1.152l.459-.459a10.309 10.309 0 0 0-1.377-1.143zm.927 2.637c-.378.99-.819 1.953-1.323 2.898l.603.261c.468-.918.9-1.899 1.278-2.943l-.558-.216zm8.046-4.572v.63h3.258v3.402h-3.618v.621h3.618v3.186h.666v-3.186h3.69v-.621h-3.69v-3.402h3.348v-.63h-7.272zm1.098 1.206-.603.297c.342.603.666 1.287.972 2.061l.603-.297a20.985 20.985 0 0 0-.972-2.061zm5.103-.045a11.824 11.824 0 0 1-1.053 2.07l.576.297c.441-.684.801-1.377 1.071-2.088l-.594-.279zm2.421-1.206v.63h3.744a6.477 6.477 0 0 1-.333 1.152h-2.898v6.138h.621v-.45h5.769v.45h.621v-6.138h-3.456c.144-.369.261-.756.333-1.152h3.609v-.63h-8.01zm1.134 6.876v-4.509h1.242v4.509h-1.242zm1.845 0v-1.152h2.052v1.152h-2.052zm2.655 0v-4.509h1.269v4.509h-1.269zm-2.655-1.719v-1.098h2.052v1.098h-2.052zm0-1.674v-1.116h2.052v1.116h-2.052z" fill="#F7B500"/></g></svg>