<svg width="274" height="74" xmlns="http://www.w3.org/2000/svg" xmlns:xlink="http://www.w3.org/1999/xlink"><defs><filter x="-27.7%" y="-22.2%" width="155.5%" height="144.4%" filterUnits="objectBoundingBox" id="a"><feOffset in="SourceAlpha" result="shadowOffsetOuter1"/><feGaussianBlur stdDeviation="2" in="shadowOffsetOuter1" result="shadowBlurOuter1"/><feColorMatrix values="0 0 0 0 0 0 0 0 0 0 0 0 0 0 0 0 0 0 0.5 0" in="shadowBlurOuter1"/></filter><filter x="-27.7%" y="-22.2%" width="155.5%" height="144.4%" filterUnits="objectBoundingBox" id="c"><feOffset in="SourceAlpha" result="shadowOffsetOuter1"/><feGaussianBlur stdDeviation="2" in="shadowOffsetOuter1" result="shadowBlurOuter1"/><feColorMatrix values="0 0 0 0 0 0 0 0 0 0 0 0 0 0 0 0 0 0 0.5 0" in="shadowBlurOuter1"/></filter><filter x="-27.7%" y="-22.2%" width="155.5%" height="144.4%" filterUnits="objectBoundingBox" id="e"><feOffset in="SourceAlpha" result="shadowOffsetOuter1"/><feGaussianBlur stdDeviation="2" in="shadowOffsetOuter1" result="shadowBlurOuter1"/><feColorMatrix values="0 0 0 0 0 0 0 0 0 0 0 0 0 0 0 0 0 0 0.5 0" in="shadowBlurOuter1"/></filter><filter x="-25%" y="-25%" width="150%" height="150%" filterUnits="objectBoundingBox" id="g"><feOffset in="SourceAlpha" result="shadowOffsetOuter1"/><feGaussianBlur stdDeviation="2" in="shadowOffsetOuter1" result="shadowBlurOuter1"/><feComposite in="shadowBlurOuter1" in2="SourceAlpha" operator="out" result="shadowBlurOuter1"/><feColorMatrix values="0 0 0 0 0 0 0 0 0 0 0 0 0 0 0 0 0 0 0.6 0" in="shadowBlurOuter1"/></filter><path d="M10.817 27.042c5.974 0 10.817-4.843 10.817-10.817 0-2.282-.707-4.399-1.913-6.144C18.419 8.2 15.45 4.84 10.817 0 6.175 4.843 3.203 8.208 1.903 10.096A10.767 10.767 0 0 0 0 16.226c0 5.973 4.843 10.816 10.817 10.816z" id="b"/><path d="M10.817 27.042c5.974 0 10.817-4.843 10.817-10.817 0-2.282-.707-4.399-1.913-6.144C18.419 8.2 15.45 4.84 10.817 0 6.175 4.843 3.203 8.208 1.903 10.096A10.767 10.767 0 0 0 0 16.226c0 5.973 4.843 10.816 10.817 10.816z" id="d"/><path d="M10.817 27.042c5.974 0 10.817-4.843 10.817-10.817 0-2.282-.707-4.399-1.913-6.144C18.419 8.2 15.45 4.84 10.817 0 6.175 4.843 3.203 8.208 1.903 10.096A10.767 10.767 0 0 0 0 16.226c0 5.973 4.843 10.816 10.817 10.816z" id="f"/><path d="M12 24c6.627 0 12-5.373 12-12S18.627 0 12 0 0 5.373 0 12s5.373 12 12 12z" id="h"/></defs><g fill="none" fill-rule="evenodd"><path d="m18.96 15.393-.9 45.202 137.688-27.672 94.786 26.243-.9-1.045" stroke="#BEBEBE" stroke-width="4" stroke-linecap="square" stroke-dasharray="4,8"/><path d="M20.411 15.393c-1.247 7.722-1.58 15.256-1.002 22.601C20.411 50.7 35.585 53.62 45.067 52.367 54.548 51.115 58.88 51.382 79 48c13.476-2.265 64.837-9.485 75.596-8.673C160.333 39.76 193.467 46.984 254 61" stroke="yellow" stroke-width="4" stroke-linecap="square"/><g transform="rotate(90 111.225 158.775)"><use fill="#000" filter="url(#a)" xlink:href="#b"/><use fill="#FFF" xlink:href="#b"/></g><path d="m253.278 59.75 12.647-20.868a1 1 0 0 0-.855-1.518h-25.295a1 1 0 0 0-.855 1.518l12.647 20.869a1 1 0 0 0 1.71 0z" fill="#037aff"/><text font-family="PingFangSC-Semibold, PingFang SC" font-size="16" font-weight="500" fill="#FFF" transform="translate(238 35.38)">
                                    <tspan x="9.915" y="16.907">4</tspan>
                                </text><g transform="rotate(90 74.225 96.775)"><use fill="#000" filter="url(#c)" xlink:href="#d"/><use fill="#FFF" xlink:href="#d"/></g><path d="m154.278 34.75 12.647-20.868a1 1 0 0 0-.855-1.518h-25.295a1 1 0 0 0-.855 1.518l12.647 20.869a1 1 0 0 0 1.71 0z" fill="#037aff"/><text font-family="PingFangSC-Semibold, PingFang SC" font-size="16" font-weight="500" fill="#FFF" transform="translate(139 10.38)">
                                    <tspan x="9.915" y="16.907">3</tspan>
                                </text><g><g transform="rotate(90 -7.775 39.775)"><use fill="#000" filter="url(#e)" xlink:href="#f"/><use fill="#FFF" xlink:href="#f"/></g><path d="m15.278 59.75 12.647-20.868a1 1 0 0 0-.855-1.518H1.775a1 1 0 0 0-.855 1.518l12.647 20.869a1 1 0 0 0 1.71 0z" fill="#037aff"/><text font-family="PingFangSC-Semibold, PingFang SC" font-size="16" font-weight="500" fill="#FFF" transform="translate(0 35.38)">
                                    <tspan x="9.915" y="16.907">2</tspan>
                                </text></g><g><path d="M3.117 0h32v32h-32z"/><g transform="translate(7.117 4)"><use fill="#000" filter="url(#g)" xlink:href="#h"/><path stroke="#FFF" stroke-width="3" d="M12 1.5c2.9 0 5.524 1.175 7.425 3.075 1.9 1.9 3.075 4.526 3.075 7.425 0 2.9-1.175 5.524-3.075 7.425A10.467 10.467 0 0 1 12 22.5c-2.9 0-5.524-1.175-7.425-3.075A10.467 10.467 0 0 1 1.5 12c0-2.9 1.175-5.524 3.075-7.425C6.475 2.675 9.101 1.5 12 1.5z" stroke-linejoin="square" fill="#037aff"/></g><text font-family="Helvetica" font-size="16" fill="#FFF" transform="translate(7.117 4)">
                                        <tspan x="6.664" y="17">S</tspan>
                                    </text></g><g><path d="M90.143 44.124 72.128 59.656l.404-9.468-6.148-7.212 23.759 1.148z" fill="green"/><path fill="#026f02" d="M90.143 44.124 72.42 53.076l-4.335-1.357z"/><path fill="#026f02" d="M90.197 44.098 70.672 47.97l-2.589 3.742z"/></g></g></svg>