<svg width="275" height="91" xmlns="http://www.w3.org/2000/svg" xmlns:xlink="http://www.w3.org/1999/xlink"><defs><filter x="-27.7%" y="-22.2%" width="155.5%" height="144.4%" filterUnits="objectBoundingBox" id="a"><feOffset in="SourceAlpha" result="shadowOffsetOuter1"/><feGaussianBlur stdDeviation="2" in="shadowOffsetOuter1" result="shadowBlurOuter1"/><feColorMatrix values="0 0 0 0 0 0 0 0 0 0 0 0 0 0 0 0 0 0 0.5 0" in="shadowBlurOuter1"/></filter><filter x="-27.7%" y="-22.2%" width="155.5%" height="144.4%" filterUnits="objectBoundingBox" id="c"><feOffset in="SourceAlpha" result="shadowOffsetOuter1"/><feGaussianBlur stdDeviation="2" in="shadowOffsetOuter1" result="shadowBlurOuter1"/><feColorMatrix values="0 0 0 0 0 0 0 0 0 0 0 0 0 0 0 0 0 0 0.5 0" in="shadowBlurOuter1"/></filter><filter x="-27.7%" y="-22.2%" width="155.5%" height="144.4%" filterUnits="objectBoundingBox" id="e"><feOffset in="SourceAlpha" result="shadowOffsetOuter1"/><feGaussianBlur stdDeviation="2" in="shadowOffsetOuter1" result="shadowBlurOuter1"/><feColorMatrix values="0 0 0 0 0 0 0 0 0 0 0 0 0 0 0 0 0 0 0.5 0" in="shadowBlurOuter1"/></filter><filter x="-25%" y="-25%" width="150%" height="150%" filterUnits="objectBoundingBox" id="g"><feOffset in="SourceAlpha" result="shadowOffsetOuter1"/><feGaussianBlur stdDeviation="2" in="shadowOffsetOuter1" result="shadowBlurOuter1"/><feComposite in="shadowBlurOuter1" in2="SourceAlpha" operator="out" result="shadowBlurOuter1"/><feColorMatrix values="0 0 0 0 0 0 0 0 0 0 0 0 0 0 0 0 0 0 0.6 0" in="shadowBlurOuter1"/></filter><path d="M10.817 27.042c5.974 0 10.817-4.843 10.817-10.817 0-2.282-.707-4.399-1.913-6.144C18.419 8.2 15.45 4.84 10.817 0 6.175 4.843 3.203 8.208 1.903 10.096A10.767 10.767 0 0 0 0 16.226c0 5.973 4.843 10.816 10.817 10.816z" id="b"/><path d="M10.817 27.042c5.974 0 10.817-4.843 10.817-10.817 0-2.282-.707-4.399-1.913-6.144C18.419 8.2 15.45 4.84 10.817 0 6.175 4.843 3.203 8.208 1.903 10.096A10.767 10.767 0 0 0 0 16.226c0 5.973 4.843 10.816 10.817 10.816z" id="d"/><path d="M10.817 27.042c5.974 0 10.817-4.843 10.817-10.817 0-2.282-.707-4.399-1.913-6.144C18.419 8.2 15.45 4.84 10.817 0 6.175 4.843 3.203 8.208 1.903 10.096A10.767 10.767 0 0 0 0 16.226c0 5.973 4.843 10.816 10.817 10.816z" id="f"/><path d="M12 24c6.627 0 12-5.373 12-12S18.627 0 12 0 0 5.373 0 12s5.373 12 12 12z" id="h"/></defs><g fill="none" fill-rule="evenodd"><path d="m19.558 15.393-.9 45.202 141.5-18.076L254 61" stroke="#BEBEBE" stroke-width="3" stroke-linecap="square" stroke-dasharray="3,6"/><path d="M19.108 10.685c-3.12 20.167-3.969 34.417-2.548 42.75.608 3.562 1.602 6.972 2.548 10.258C35.728 121.403 138.27 35 188 35c16 0 36.744 8.007 62.232 24.021" stroke="yellow" stroke-width="4" stroke-linecap="square"/><g transform="rotate(90 111.415 159.585)"><use fill="#000" filter="url(#a)" xlink:href="#b"/><use fill="#FFF" xlink:href="#b"/></g><path d="m254.255 58.189 12.554-18.831a1 1 0 0 0-.832-1.555h-25.108a1 1 0 0 0-.833 1.555l12.554 18.83a1 1 0 0 0 1.665 0z" fill="#037aff"/><text font-family="PingFangSC-Semibold, PingFang SC" font-size="16" font-weight="500" fill="#FFF" transform="translate(239 36)">
                                        <tspan x="9.915" y="15.915">4</tspan>
                                    </text><g transform="rotate(90 71.915 103.085)"><use fill="#000" filter="url(#c)" xlink:href="#d"/><use fill="#FFF" xlink:href="#d"/></g><path d="m158.255 41.189 12.554-18.831a1 1 0 0 0-.832-1.555h-25.108a1 1 0 0 0-.833 1.555l12.554 18.83a1 1 0 0 0 1.665 0z" fill="#037aff"/><text font-family="PingFangSC-Semibold, PingFang SC" font-size="16" font-weight="500" fill="#FFF" transform="translate(143 19)">
                                        <tspan x="9.915" y="15.915">3</tspan>
                                    </text><g><g transform="rotate(90 -8.085 40.085)"><use fill="#000" filter="url(#e)" xlink:href="#f"/><use fill="#FFF" xlink:href="#f"/></g><path d="m15.255 58.189 12.554-18.831a1 1 0 0 0-.832-1.555H1.869a1 1 0 0 0-.833 1.555l12.554 18.83a1 1 0 0 0 1.665 0z" fill="#037aff"/><text font-family="PingFangSC-Semibold, PingFang SC" font-size="16" font-weight="500" fill="#FFF" transform="translate(0 36)">
                                        <tspan x="9.915" y="15.915">2</tspan>
                                    </text></g><g><path d="M3.715 0h32v32h-32z"/><g transform="translate(7.715 4)"><use fill="#000" filter="url(#g)" xlink:href="#h"/><path stroke="#FFF" stroke-width="3" d="M12 1.5c2.9 0 5.524 1.175 7.425 3.075 1.9 1.9 3.075 4.526 3.075 7.425 0 2.9-1.175 5.524-3.075 7.425A10.467 10.467 0 0 1 12 22.5c-2.9 0-5.524-1.175-7.425-3.075A10.467 10.467 0 0 1 1.5 12c0-2.9 1.175-5.524 3.075-7.425C6.475 2.675 9.101 1.5 12 1.5z" stroke-linejoin="square" fill="#037aff"/></g><text font-family="Helvetica" font-size="16" fill="#FFF" transform="translate(7.715 4)">
                                            <tspan x="6.664" y="17">S</tspan>
                                        </text></g><g><path d="M83.826 72.676 66.648 89.129l-.091-9.476-6.517-6.88 23.786-.097z" fill="green"/><path fill="#026f02" d="m83.826 72.676-17.23 9.868-4.4-1.13z"/><path fill="#026f02" d="m83.879 72.647-19.296 4.889-2.39 3.872z"/></g></g></svg>