<?xml version="1.0" encoding="UTF-8"?>
<svg width="17px" height="16px" viewBox="0 0 17 16" version="1.1" xmlns="http://www.w3.org/2000/svg" xmlns:xlink="http://www.w3.org/1999/xlink">
    <title>ic-del</title>
    <g id="风筝线航线规划-new-202006" stroke="none" stroke-width="1" fill="none" fill-rule="evenodd">
        <g id="航线规划-航点模式-无航点备份" transform="translate(-789.000000, -384.000000)" fill-rule="nonzero">
            <g id="编组-6备份-2" transform="translate(328.000000, 338.000000)">
                <g id="delete" transform="translate(458.000000, 42.000000)">
                    <g id="编组-7" transform="translate(4.000000, 4.000000)">
                        <rect id="矩形" x="0" y="0" width="16" height="16" rx="1.33333333"></rect>
                        <path d="M6.02083333,3.9 L9.97916667,3.9 L9.97916667,4.8 L10.9166667,4.8 L10.9166667,3.8 C10.9166667,3.35875 10.5429687,3 10.0833333,3 L5.91666667,3 C5.45703125,3 5.08333333,3.35875 5.08333333,3.8 L5.08333333,4.8 L6.02083333,4.8 L6.02083333,3.9 Z M12.5833333,4.8 L3.41666667,4.8 C3.18619792,4.8 3,4.97875 3,5.2 L3,5.6 C3,5.655 3.046875,5.7 3.10416667,5.7 L3.890625,5.7 L4.21223958,12.2375 C4.23307292,12.66375 4.60026042,13 5.04427083,13 L10.9557292,13 C11.4010417,13 11.7669271,12.665 11.7877604,12.2375 L12.109375,5.7 L12.8958333,5.7 C12.953125,5.7 13,5.655 13,5.6 L13,5.2 C13,4.97875 12.8138021,4.8 12.5833333,4.8 Z M10.8554687,12.1 L5.14453125,12.1 L4.82942708,5.7 L11.1705729,5.7 L10.8554687,12.1 Z" id="形状" fill="#FFFFFF"></path>
                    </g>
                </g>
            </g>
        </g>
    </g>
</svg>