<?xml version="1.0" standalone="no"?><!DOCTYPE svg PUBLIC "-//W3C//DTD SVG 1.1//EN" "http://www.w3.org/Graphics/SVG/1.1/DTD/svg11.dtd"><svg t="1714961030158" class="icon" viewBox="0 0 1024 1024" version="1.1" xmlns="http://www.w3.org/2000/svg" p-id="4546" width="32" height="32" data-spm-anchor-id="a313x.search_index.0.i5.340b3a81NaWIjg" xmlns:xlink="http://www.w3.org/1999/xlink"><path d="M400.8 512.3L281 293.8l285.9-153.9-36.8 122.9c-3.5 12.2-2.1 25.2 4 36.3 6.1 11.1 16.4 19.3 28.5 22.8l124.1 36.4-285.9 154z m452.3-168.8c-1.9-17.9-14.5-32.8-31.7-37.8l-193.9-56.9 57.4-192c5.1-17.2-0.7-35.7-14.7-46.9C656-1.4 636.6-3.2 620.7 5.4L618 7.1l-2 0.9-407.7 219.4c-2.2 1.2-4.3 2.6-6.3 4.1-12.9 4.4-23.2 14.3-28.2 27-4.9 12.7-4 26.9 2.5 38.9L468 829.1c12.5 22.6 40.9 30.9 63.5 18.6 10.9-5.8 19-15.7 22.5-27.5s2.2-24.6-3.7-35.4l-104.8-191 379.7-204.3c1-0.5 1.9-1.1 2.8-1.7l1.9-0.9c16-8.4 25.1-25.5 23.2-43.4z m0 0" fill="#1afa29" p-id="4547" data-spm-anchor-id="a313x.search_index.0.i6.340b3a81NaWIjg" class=""></path><path d="M512 1024C321.8 1024 0 987.1 0 848.8 0 794.4 51 722.3 294.3 688c25.7-3.8 49.6 13.9 53.5 39.6 1.7 12.3-1.6 24.8-9.1 34.7-7.5 9.9-18.7 16.4-31 18.1C160.5 801.1 107.2 836 96 848.8c8.3 9.6 40.1 31.5 119.1 50.9 81.4 19.9 186.8 31 296.9 31 110 0 215.4-11 296.8-31 79.2-19.5 111-41.5 119.2-51-14.2-17.6-88.6-55.2-248.8-72.9-12.4-1.3-23.7-7.5-31.6-17.1-7.8-9.7-11.5-22.1-10.1-34.5 3.1-25.8 26.4-44.2 52.2-41.2 124.8 13.8 334.3 53.7 334.3 165.8C1024 987 702.2 1024 512 1024z m0 0" fill="#f4ea2a" p-id="4548" data-spm-anchor-id="a313x.search_index.0.i7.340b3a81NaWIjg" class="selected"></path></svg>